<svg xmlns="http://www.w3.org/2000/svg" viewBox="0 0 24 24" width="24" height="24">
  <path fill="#8A98A8" fill-rule="evenodd" d="M19.14 12.94a7.6 7.6 0 0 0 0-1.88l1.88-1.46a1 1 0 0 0 .24-1.28l-1.78-3.08a1 1 0 0 0-1.22-.44l-2.22.89a7.4 7.4 0 0 0-1.63-.95l-.34-2.36A1 1 0 0 0 13.07 1.5h-2.14a1 1 0 0 0-.99.88l-.34 2.36c-.58.24-1.13.56-1.63.95l-2.22-.89a1 1 0 0 0-1.22.44L2.74 8.32a1 1 0 0 0 .24 1.28l1.88 1.46a7.6 7.6 0 0 0 0 1.88l-1.88 1.46a1 1 0 0 0-.24 1.28l1.78 3.08a1 1 0 0 0 1.22.44l2.22-.89c.5.39 1.05.71 1.63.95l.34 2.36a1 1 0 0 0 .99.88h2.14a1 1 0 0 0 .99-.88l.34-2.36c.58-.24 1.13-.56 1.63-.95l2.22.89a1 1 0 0 0 1.22-.44l1.78-3.08a1 1 0 0 0-.24-1.28l-1.88-1.46zM12 15a3 3 0 1 0 0-6 3 3 0 0 0 0 6zm0-1.5a1.5 1.5 0 1 1 0-3 1.5 1.5 0 0 1 0 3z"/>
</svg>